<?xml version="1.0" encoding="utf-8"?>
<!-- Generator: Adobe Illustrator 26.1.0, SVG Export Plug-In . SVG Version: 6.00 Build 0)  -->
<svg version="1.1" id="Layer_1" xmlns="http://www.w3.org/2000/svg" xmlns:xlink="http://www.w3.org/1999/xlink" x="0px" y="0px"
	 viewBox="0 0 612 221.24" style="enable-background:new 0 0 612 221.24;" xml:space="preserve">
<style type="text/css">
	.st0{fill:#FFA500;}
	.st1{fill:#4166FF;}
	.st2{fill:#FFFFFF;}
</style>
<polygon class="st0" points="55.7,166.59 55.7,46.8 13.64,97.21 13.64,122.37 "/>
<polygon class="st1" points="106.91,154.22 106.91,0 64.82,15.84 64.82,176.01 "/>
<polygon class="st0" points="158.1,127.71 158.1,66.54 116.02,16.13 116.02,149.49 "/>
<polygon class="st1" points="209.31,101.2 209.31,84.31 167.22,84.31 167.22,122.98 "/>
<polygon class="st1" points="0,129.04 61.74,193.92 229.7,102.68 61.74,221.24 "/>
<g>
	<path class="st1" d="M258.42,126.91V41.13c0-0.84,0.25-1.47,0.76-1.89c0.5-0.42,1.43-0.63,2.78-0.63h12.36
		c2.69,0,5.3,0.27,7.82,0.82c2.52,0.55,4.79,1.54,6.81,2.96c2.02,1.43,3.64,3.43,4.86,5.99c1.22,2.57,1.83,5.91,1.83,10.03
		c0,4.29-0.59,7.88-1.77,10.79c-1.18,2.9-2.65,5.13-4.42,6.69c-1.77,1.56-3.58,2.46-5.42,2.71c1.51,0.17,3.11,0.53,4.79,1.07
		c1.68,0.55,3.26,1.47,4.73,2.77c1.47,1.3,2.67,3.11,3.6,5.42c0.92,2.31,1.39,5.32,1.39,9.02c0,3.36-0.27,6.54-0.82,9.52
		c-0.55,2.99-1.41,5.72-2.59,8.2c-1.18,2.48-2.69,4.65-4.54,6.5c-1.85,1.85-4.06,3.28-6.62,4.29c-2.57,1.01-5.57,1.51-9.02,1.51
		H258.42z M272.81,73.42h2.4c1.01,0,1.87-0.5,2.59-1.51c0.71-1.01,1.26-2.42,1.64-4.23c0.38-1.81,0.57-3.89,0.57-6.24
		c0-2.94-0.19-5.17-0.57-6.69c-0.38-1.51-0.9-2.52-1.58-3.03c-0.67-0.5-1.39-0.76-2.14-0.76h-2.9V73.42z M272.81,114.67h2.52
		c1.01,0,1.89-0.38,2.65-1.14c0.76-0.76,1.41-1.85,1.95-3.28c0.55-1.43,0.97-3.15,1.26-5.17c0.29-2.02,0.44-4.33,0.44-6.94
		c0-2.86-0.13-5.13-0.38-6.81c-0.25-1.68-0.63-2.96-1.14-3.85c-0.5-0.88-1.13-1.47-1.89-1.77c-0.76-0.29-1.64-0.44-2.65-0.44h-2.77
		V114.67z"/>
	<path class="st1" d="M303.58,126.91V41.13c0.51-1.68,1.34-2.52,2.52-2.52h30.27c0,3.78-0.04,6.56-0.13,8.33
		c-0.08,1.77-0.3,2.92-0.63,3.47c-0.34,0.55-0.93,0.82-1.77,0.82h-16.15v63.07h17.79c0,3.95-0.04,6.81-0.13,8.58
		c-0.08,1.77-0.3,2.88-0.63,3.34c-0.34,0.46-0.93,0.69-1.77,0.69H303.58z M304.59,85.53V72.67h28.38c0,5.3-0.11,8.77-0.32,10.41
		c-0.21,1.64-0.9,2.46-2.08,2.46H304.59z"/>
	<path class="st1" d="M359.97,128.17c-2.86,0-5.42-0.36-7.69-1.07s-4.25-1.96-5.93-3.72c-1.68-1.77-3.07-4.25-4.16-7.44
		c-1.09-3.2-1.91-7.27-2.46-12.24c-0.55-4.96-0.82-10.97-0.82-18.04c0-8.24,0.51-15.22,1.51-20.94c1.01-5.72,2.38-10.36,4.1-13.94
		c1.72-3.57,3.68-6.35,5.87-8.33c2.19-1.97,4.46-3.32,6.81-4.04c2.35-0.71,4.67-1.07,6.94-1.07c3.61,0,6.26,0.36,7.95,1.07
		c1.68,0.72,2.78,1.64,3.28,2.77c0.5,1.14,0.76,2.33,0.76,3.6c0,1.68-0.21,3.26-0.63,4.73c-0.42,1.47-0.88,2.76-1.39,3.85
		c-0.5-0.42-1.09-0.78-1.77-1.07c-0.67-0.29-1.41-0.55-2.21-0.76c-0.8-0.21-1.66-0.32-2.59-0.32c-1.43,0-2.82,0.27-4.16,0.82
		c-1.35,0.55-2.61,1.54-3.78,2.96c-1.18,1.43-2.19,3.41-3.03,5.93c-0.84,2.52-1.51,5.72-2.02,9.59c-0.5,3.87-0.76,8.54-0.76,14
		c0,5.47,0.19,10.01,0.57,13.62c0.38,3.62,0.95,6.45,1.7,8.51c0.76,2.06,1.77,3.53,3.03,4.41c1.26,0.88,2.77,1.33,4.54,1.33
		c1.93,0,3.76-0.17,5.49-0.5c1.72-0.33,3.17-0.8,4.35-1.39c0.5,1.09,0.95,2.38,1.32,3.85c0.38,1.47,0.57,2.96,0.57,4.48
		c0,1.94-0.61,3.62-1.83,5.05c-1.22,1.43-2.99,2.5-5.3,3.22C365.92,127.81,363.16,128.17,359.97,128.17z"/>
	<path class="st1" d="M381.29,126.91V41.13c0-0.84,0.17-1.43,0.5-1.77c0.34-0.33,1.49-0.55,3.47-0.63
		c1.98-0.08,5.36-0.13,10.15-0.13v85.78c0,0.84-0.17,1.43-0.5,1.77c-0.34,0.34-1.49,0.55-3.47,0.63
		C389.46,126.87,386.08,126.91,381.29,126.91z M387.97,86.54V73.3h25.86l0.13,13.25H387.97z M407.52,126.91V41.13
		c0-0.84,0.19-1.43,0.57-1.77c0.38-0.33,1.53-0.55,3.47-0.63c1.93-0.08,5.3-0.13,10.09-0.13v85.78c0,0.84-0.17,1.43-0.5,1.77
		c-0.34,0.34-1.49,0.55-3.47,0.63C415.7,126.87,412.32,126.91,407.52,126.91z"/>
	<path class="st1" d="M429.35,126.91V41.13c0.5-1.68,1.34-2.52,2.52-2.52h30.28c0,3.78-0.04,6.56-0.13,8.33
		c-0.08,1.77-0.3,2.92-0.63,3.47c-0.34,0.55-0.93,0.82-1.77,0.82h-16.15v63.07h17.79c0,3.95-0.04,6.81-0.13,8.58
		c-0.08,1.77-0.3,2.88-0.63,3.34c-0.34,0.46-0.93,0.69-1.77,0.69H429.35z M430.36,85.53V72.67h28.38c0,5.3-0.11,8.77-0.32,10.41
		c-0.21,1.64-0.9,2.46-2.08,2.46H430.36z"/>
	<path class="st1" d="M464.67,97.39c0-4.2,0.11-7.27,0.32-9.21c0.21-1.93,0.95-2.9,2.21-2.9h23.21c0,4.12-0.11,7.17-0.32,9.15
		c-0.21,1.98-0.95,2.96-2.21,2.96H464.67z"/>
	<path class="st1" d="M497.97,126.91V41.13c0-0.84,0.25-1.47,0.76-1.89c0.5-0.42,1.43-0.63,2.77-0.63h12.11
		c4.2,0,7.86,0.57,10.97,1.7c3.11,1.13,5.68,3.13,7.7,5.99c2.02,2.86,3.53,6.9,4.54,12.11c1.01,5.22,1.51,11.86,1.51,19.93
		c0,8.41-0.46,15.68-1.39,21.82c-0.93,6.14-2.36,11.19-4.29,15.14c-1.94,3.95-4.41,6.88-7.44,8.77c-3.03,1.89-6.69,2.84-10.97,2.84
		H497.97z M512.1,113.54h2.52c1.01,0,1.95-0.42,2.84-1.26c0.88-0.84,1.66-2.52,2.33-5.05c0.67-2.52,1.22-6.22,1.64-11.1
		c0.42-4.88,0.63-11.31,0.63-19.3c0-5.63-0.19-10.13-0.57-13.5c-0.38-3.36-0.88-5.91-1.52-7.63c-0.63-1.72-1.41-2.86-2.33-3.41
		c-0.93-0.55-1.98-0.82-3.15-0.82h-2.4V113.54z"/>
	<path class="st1" d="M543.38,126.91V44.79c0-2.1,0.21-3.57,0.63-4.42c0.42-0.84,1.64-1.34,3.66-1.51
		c2.02-0.17,5.38-0.25,10.09-0.25v85.78c0,0.84-0.21,1.43-0.63,1.77c-0.42,0.34-1.62,0.55-3.6,0.63
		C551.56,126.87,548.17,126.91,543.38,126.91z"/>
	<path class="st1" d="M565.33,126.91V41.13c0-1.68,0.84-2.52,2.52-2.52l11.6,2.52l-2.14,21.32c0.25,1.77,0.46,3.57,0.63,5.42
		c0.17,1.85,0.33,3.72,0.5,5.61c0.17,1.89,0.32,3.74,0.44,5.55c0.13,1.81,0.23,3.6,0.32,5.36c0.08,1.77,0.15,3.47,0.19,5.11
		c0.04,1.64,0.06,3.18,0.06,4.6v30.27c0,0.84-0.21,1.43-0.63,1.77c-0.42,0.34-1.6,0.55-3.53,0.63
		C573.35,126.87,570.04,126.91,565.33,126.91z M598.5,126.91L585.13,93.1c-0.76-2.02-1.54-4.33-2.33-6.94
		c-0.8-2.61-1.56-5.34-2.27-8.2c-0.72-2.86-1.37-5.63-1.96-8.32c-0.59-2.69-1.12-5.13-1.58-7.32c-0.46-2.19-0.95-4.58-1.45-7.19
		l-8.32-8.33l0.63-8.2h11.23l13.12,33.18c0.84,2.19,1.68,4.65,2.52,7.38c0.84,2.73,1.62,5.51,2.33,8.33
		c0.71,2.82,1.37,5.53,1.96,8.14c0.59,2.61,1.09,4.96,1.51,7.06c0.42,2.1,0.88,4.37,1.39,6.81l8.58,9.21l-1.01,8.2H598.5z
		 M609.48,126.91l-11.6-2.52l1.89-24.22c-0.25-1.93-0.46-3.8-0.63-5.61c-0.17-1.81-0.32-3.55-0.44-5.23
		c-0.13-1.68-0.25-3.32-0.38-4.92c-0.13-1.6-0.21-3.17-0.25-4.73c-0.04-1.55-0.08-3.09-0.13-4.6c-0.04-1.51-0.06-3.03-0.06-4.54
		V41.13c0-0.84,0.21-1.43,0.63-1.77c0.42-0.33,1.62-0.55,3.59-0.63c1.98-0.08,5.28-0.13,9.9-0.13v85.78
		C612,126.07,611.16,126.91,609.48,126.91z"/>
</g>
<g>
	<path class="st2" d="M258.42,191.4v-34.33c0-0.6,0.3-0.91,0.91-0.91l3.67,0.91l-0.66,6.7c0.07,0.54,0.13,1.21,0.18,2.01
		c0.05,0.81,0.1,1.69,0.15,2.64c0.05,0.96,0.1,1.92,0.15,2.89c0.05,0.98,0.08,1.91,0.1,2.82c0.02,0.91,0.03,1.73,0.05,2.47
		c0.02,0.74,0.02,1.33,0.02,1.76v12.13c0,0.3-0.07,0.51-0.2,0.63c-0.14,0.12-0.51,0.19-1.13,0.23
		C261.05,191.38,259.97,191.4,258.42,191.4z M272.27,191.4l-5.64-13.74c-0.23-0.6-0.52-1.41-0.85-2.42
		c-0.34-1.01-0.69-2.11-1.06-3.32c-0.37-1.21-0.73-2.42-1.08-3.62c-0.35-1.21-0.68-2.32-0.98-3.32c-0.3-1.01-0.62-2.13-0.96-3.37
		l-2.67-2.72l0.3-2.72h3.52l5.54,13.49c0.27,0.67,0.58,1.53,0.93,2.57c0.35,1.04,0.71,2.15,1.08,3.35c0.37,1.19,0.72,2.37,1.06,3.52
		c0.33,1.16,0.65,2.22,0.93,3.2c0.28,0.97,0.6,2.05,0.93,3.22l2.82,3.17l-0.4,2.72H272.27z M275.74,191.4l-3.73-0.91l0.6-7.65
		c-0.07-0.6-0.13-1.3-0.18-2.09c-0.05-0.79-0.1-1.63-0.15-2.52c-0.05-0.89-0.09-1.79-0.12-2.69c-0.03-0.91-0.06-1.78-0.08-2.62
		c-0.02-0.84-0.03-1.61-0.05-2.32c-0.02-0.7-0.02-1.29-0.02-1.76v-11.78c0-0.3,0.08-0.51,0.23-0.63c0.15-0.12,0.54-0.19,1.18-0.23
		c0.64-0.03,1.69-0.05,3.17-0.05v34.33C276.6,191.1,276.31,191.4,275.74,191.4z"/>
	<path class="st2" d="M291.83,191.5c-0.27,0-0.68-0.02-1.23-0.05c-0.55-0.03-1.1-0.08-1.64-0.15l8.81-34.43
		c0.1-0.57,0.69-0.86,1.76-0.86c0.4,0,0.8,0.02,1.18,0.05c0.39,0.03,0.71,0.08,0.98,0.15l8.81,34.38c0.07,0.3-0.02,0.53-0.28,0.68
		c-0.25,0.15-0.83,0.23-1.74,0.23c-0.3,0-0.68-0.01-1.13-0.02c-0.45-0.02-0.96-0.04-1.54-0.08l-4.43-19.18
		c-0.2-1.04-0.42-2.13-0.66-3.27c-0.24-1.14-0.43-2.27-0.58-3.37c-0.15-1.11-0.28-2.1-0.38-2.97c-0.07,0.87-0.19,1.86-0.38,2.97
		c-0.18,1.11-0.38,2.23-0.58,3.37c-0.2,1.14-0.42,2.23-0.65,3.27l-4.23,18.37c-0.03,0.3-0.17,0.53-0.4,0.68
		C293.3,191.43,292.73,191.5,291.83,191.5z M294.29,182.74v-4.13h11.83v4.13H294.29z"/>
	<path class="st2" d="M322.88,191.4v-34.33c0-0.3,0.06-0.51,0.18-0.63c0.12-0.12,0.5-0.19,1.13-0.23c0.64-0.03,1.73-0.05,3.27-0.05
		v34.33c0,0.3-0.06,0.51-0.18,0.63c-0.12,0.12-0.49,0.19-1.13,0.23C325.52,191.38,324.43,191.4,322.88,191.4z M325.1,174.64v-4.28
		h11.38l0.05,4.28H325.1z M334.46,191.4v-34.33c0-0.3,0.06-0.51,0.18-0.63c0.12-0.12,0.49-0.19,1.11-0.23
		c0.62-0.03,1.72-0.05,3.3-0.05v34.33c0,0.3-0.06,0.51-0.18,0.63c-0.12,0.12-0.5,0.19-1.13,0.23
		C337.1,191.38,336.01,191.4,334.46,191.4z"/>
	<path class="st2" d="M360.46,191.91c-1.64,0-3.04-0.27-4.18-0.81c-1.14-0.54-2.07-1.49-2.79-2.87c-0.72-1.38-1.25-3.25-1.59-5.61
		c-0.34-2.37-0.5-5.38-0.5-9.04c0-4.5,0.35-8.05,1.06-10.65c0.7-2.6,1.77-4.46,3.2-5.59c1.43-1.12,3.21-1.69,5.36-1.69
		c1.64,0,3.04,0.28,4.18,0.86c1.14,0.57,2.06,1.53,2.77,2.87c0.7,1.34,1.22,3.15,1.54,5.44c0.32,2.28,0.48,5.15,0.48,8.61
		c0,4.67-0.34,8.34-1.01,11.03c-0.67,2.68-1.7,4.6-3.1,5.74C364.48,191.33,362.68,191.91,360.46,191.91z M360.66,187.17
		c1.11,0,1.97-0.45,2.59-1.36c0.62-0.91,1.07-2.37,1.33-4.38c0.27-2.01,0.4-4.65,0.4-7.9c0-3.22-0.11-5.8-0.33-7.73
		c-0.22-1.93-0.62-3.31-1.21-4.15c-0.59-0.84-1.44-1.26-2.54-1.26c-1.04,0-1.88,0.46-2.52,1.38c-0.64,0.92-1.1,2.43-1.38,4.51
		c-0.29,2.08-0.43,4.88-0.43,8.41c0,2.95,0.12,5.34,0.35,7.17c0.23,1.83,0.65,3.17,1.26,4.03S359.62,187.17,360.66,187.17z"/>
	<path class="st2" d="M392.72,179.87h-2.67l-7.65-23.01c-0.1-0.24-0.07-0.4,0.08-0.5c0.15-0.1,0.6-0.16,1.36-0.18
		c0.76-0.02,2.02-0.02,3.8-0.02l1.81,6.8c0.2,0.74,0.42,1.6,0.66,2.59c0.23,0.99,0.46,1.99,0.68,2.99c0.22,1.01,0.4,1.93,0.56,2.77
		c0.15,0.84,0.23,1.48,0.23,1.91c0.07-0.44,0.18-1.07,0.33-1.91c0.15-0.84,0.33-1.76,0.53-2.77c0.2-1.01,0.43-2,0.68-2.99
		c0.25-0.99,0.48-1.85,0.68-2.59l1.56-5.99c0.1-0.27,0.23-0.45,0.38-0.55c0.15-0.1,0.56-0.17,1.23-0.2
		c0.67-0.03,1.78-0.05,3.32-0.05L392.72,179.87z M389.14,191.4v-17.62h4.58v16.72c0,0.3-0.07,0.51-0.2,0.63
		c-0.14,0.12-0.51,0.19-1.13,0.23C391.77,191.38,390.68,191.4,389.14,191.4z"/>
</g>
<g>
	<path class="st2" d="M429.98,191.4v-34.33c0.17-0.6,0.45-0.91,0.86-0.91h12.08c0,1.24-0.01,2.13-0.02,2.67
		c-0.02,0.54-0.08,0.88-0.2,1.03c-0.12,0.15-0.31,0.23-0.58,0.23h-7.55v30.41c-0.1,0.6-0.37,0.91-0.81,0.91H429.98z M430.48,174.34
		v-4.18h11.18c0,1.71-0.03,2.84-0.1,3.37c-0.07,0.54-0.32,0.81-0.76,0.81H430.48z"/>
	<path class="st2" d="M455.27,191.4v-34.33c0.17-0.6,0.45-0.91,0.86-0.91h12.08c0,1.24-0.01,2.15-0.02,2.72
		c-0.02,0.57-0.08,0.95-0.2,1.13c-0.12,0.18-0.31,0.28-0.58,0.28h-7.55v26.98h8.11c0,1.28-0.01,2.21-0.02,2.79
		c-0.02,0.59-0.08,0.96-0.2,1.11c-0.12,0.15-0.33,0.23-0.63,0.23H455.27z M455.78,174.34v-4.18h11.18c0,1.75-0.03,2.88-0.1,3.4
		c-0.07,0.52-0.32,0.78-0.76,0.78H455.78z"/>
	<path class="st2" d="M480.57,191.4v-33.98c0-0.44,0.07-0.74,0.2-0.91c0.13-0.17,0.53-0.27,1.18-0.3c0.66-0.03,1.74-0.05,3.25-0.05
		v30.96h8.16v3.37c0,0.37-0.08,0.61-0.25,0.73c-0.17,0.12-0.39,0.18-0.66,0.18H480.57z"/>
	<path class="st2" d="M505.72,191.4v-34.33c0.17-0.6,0.45-0.91,0.86-0.91h12.08c0,1.24-0.01,2.15-0.02,2.72
		c-0.02,0.57-0.08,0.95-0.2,1.13c-0.12,0.18-0.31,0.28-0.58,0.28h-7.55v26.98h8.11c0,1.28-0.01,2.21-0.02,2.79
		c-0.02,0.59-0.08,0.96-0.2,1.11c-0.12,0.15-0.33,0.23-0.63,0.23H505.72z M506.22,174.34v-4.18h11.18c0,1.75-0.03,2.88-0.1,3.4
		c-0.07,0.52-0.32,0.78-0.76,0.78H506.22z"/>
</g>
<g>
	<path class="st2" d="M548.37,191.4v-34.28c0-0.3,0.09-0.54,0.28-0.7c0.18-0.17,0.54-0.25,1.08-0.25h4.88
		c1.64,0,3.09,0.24,4.33,0.73c1.24,0.49,2.27,1.32,3.07,2.49c0.81,1.17,1.41,2.79,1.81,4.86c0.4,2.06,0.6,4.64,0.6,7.73
		c0,3.59-0.21,6.63-0.63,9.11c-0.42,2.48-1.03,4.48-1.84,5.99c-0.81,1.51-1.81,2.61-3.02,3.3c-1.21,0.69-2.62,1.03-4.23,1.03H548.37
		z M552.95,187.07h1.86c0.57,0,1.11-0.18,1.63-0.55c0.52-0.37,0.99-1.08,1.41-2.14c0.42-1.06,0.75-2.62,0.98-4.68
		c0.23-2.06,0.35-4.79,0.35-8.18c0-2.31-0.09-4.19-0.28-5.64c-0.19-1.44-0.46-2.57-0.83-3.37c-0.37-0.81-0.82-1.37-1.36-1.69
		c-0.54-0.32-1.18-0.48-1.91-0.48h-1.86V187.07z"/>
	<path class="st2" d="M576.79,191.4v-33.18c0-0.7,0.07-1.2,0.2-1.49c0.13-0.28,0.53-0.45,1.18-0.5c0.66-0.05,1.75-0.08,3.3-0.08
		v34.33c0,0.3-0.08,0.51-0.23,0.63c-0.15,0.12-0.54,0.19-1.18,0.23C579.42,191.38,578.33,191.4,576.79,191.4z"/>
	<path class="st2" d="M593.83,191.4v-34.33c0-0.6,0.3-0.91,0.91-0.91l3.67,0.91l-0.66,6.7c0.07,0.54,0.13,1.21,0.18,2.01
		c0.05,0.81,0.1,1.69,0.15,2.64c0.05,0.96,0.1,1.92,0.15,2.89c0.05,0.98,0.08,1.91,0.1,2.82c0.02,0.91,0.03,1.73,0.05,2.47
		c0.02,0.74,0.02,1.33,0.02,1.76v12.13c0,0.3-0.07,0.51-0.2,0.63c-0.14,0.12-0.51,0.19-1.13,0.23
		C596.45,191.38,595.37,191.4,593.83,191.4z M607.67,191.4l-5.64-13.74c-0.23-0.6-0.52-1.41-0.85-2.42
		c-0.34-1.01-0.69-2.11-1.06-3.32c-0.37-1.21-0.73-2.42-1.08-3.62c-0.35-1.21-0.68-2.32-0.98-3.32c-0.3-1.01-0.62-2.13-0.96-3.37
		l-2.67-2.72l0.3-2.72h3.52l5.54,13.49c0.27,0.67,0.58,1.53,0.93,2.57c0.35,1.04,0.71,2.15,1.08,3.35c0.37,1.19,0.72,2.37,1.06,3.52
		c0.33,1.16,0.65,2.22,0.93,3.2c0.28,0.97,0.6,2.05,0.93,3.22l2.82,3.17l-0.4,2.72H607.67z M611.15,191.4l-3.73-0.91l0.6-7.65
		c-0.07-0.6-0.13-1.3-0.18-2.09c-0.05-0.79-0.1-1.63-0.15-2.52c-0.05-0.89-0.09-1.79-0.12-2.69c-0.03-0.91-0.06-1.78-0.08-2.62
		c-0.02-0.84-0.03-1.61-0.05-2.32c-0.02-0.7-0.02-1.29-0.02-1.76v-11.78c0-0.3,0.08-0.51,0.23-0.63c0.15-0.12,0.54-0.19,1.18-0.23
		c0.64-0.03,1.69-0.05,3.17-0.05v34.33C612,191.1,611.72,191.4,611.15,191.4z"/>
</g>
</svg>
